<svg width="32" height="32" viewBox="0 0 24 24" fill="none" xmlns="http://www.w3.org/2000/svg">
  <!-- Car body -->
  <path d="M7 17C7.55228 17 8 16.5523 8 16C8 15.4477 7.55228 15 7 15C6.44772 15 6 15.4477 6 16C6 16.5523 6.44772 17 7 17Z" fill="#1e3a8a"/>
  <path d="M17 17C17.5523 17 18 16.5523 18 16C18 15.4477 17.5523 15 17 15C16.4477 15 16 15.4477 16 16C16 16.5523 16.4477 17 17 17Z" fill="#1e3a8a"/>
  
  <!-- Car main body -->
  <path d="M5 11L6.5 6.5H17.5L19 11V13C19 13.5523 18.5523 14 18 14H6C5.44772 14 5 13.5523 5 13V11Z" fill="#3b82f6" stroke="#1e3a8a" stroke-width="1"/>
  
  <!-- Windshield -->
  <path d="M7 11L8 8H16L17 11H7Z" fill="#e5e7eb"/>
  
  <!-- Wheels -->
  <circle cx="7" cy="16" r="2" fill="#374151" stroke="#1f2937" stroke-width="1"/>
  <circle cx="17" cy="16" r="2" fill="#374151" stroke="#1f2937" stroke-width="1"/>
  
  <!-- Wheel centers -->
  <circle cx="7" cy="16" r="1" fill="#6b7280"/>
  <circle cx="17" cy="16" r="1" fill="#6b7280"/>
</svg>

